<svg width="32" height="27" viewBox="0 0 32 27" fill="none" xmlns="http://www.w3.org/2000/svg">
  <path d="M22.7708 25.4681V22.7494C22.7708 21.3073 22.1979 19.9243 21.1782 18.9046C20.1585 17.8849 18.7755 17.3121 17.3335 17.3121H6.45881C5.01674 17.3121 3.63374 17.8849 2.61404 18.9046C1.59434 19.9243 1.02148 21.3073 1.02148 22.7494V25.4681" stroke="black" stroke-width="2" stroke-linecap="round" stroke-linejoin="round"/>
  <path d="M11.8953 11.8747C14.8983 11.8747 17.3327 9.44028 17.3327 6.43733C17.3327 3.43437 14.8983 1 11.8953 1C8.89238 1 6.45801 3.43437 6.45801 6.43733C6.45801 9.44028 8.89238 11.8747 11.8953 11.8747Z" stroke="black" stroke-width="2" stroke-linecap="round" stroke-linejoin="round"/>
  <path d="M30.9266 25.4678V22.7491C30.9257 21.5444 30.5248 20.3741 29.7866 19.4219C29.0485 18.4698 28.0151 17.7897 26.8486 17.4885" stroke="black" stroke-width="2" stroke-linecap="round" stroke-linejoin="round"/>
  <path d="M21.4116 1.17645C22.5812 1.47591 23.6179 2.15612 24.3582 3.10984C25.0985 4.06356 25.5003 5.23655 25.5003 6.44386C25.5003 7.65118 25.0985 8.82416 24.3582 9.77788C23.6179 10.7316 22.5812 11.4118 21.4116 11.7113" stroke="black" stroke-width="2" stroke-linecap="round" stroke-linejoin="round"/>
</svg>
