<svg width="236" height="222" viewBox="0 0 236 222" fill="none" xmlns="http://www.w3.org/2000/svg">
<g filter="url(#filter0_f_202_3827)">
<path d="M220.547 47.1623C231.431 61.1952 220.047 90.5387 215.376 118.779C210.705 147.02 212.604 174.098 200.636 190.648C188.752 207.403 162.654 213.655 140.252 211.442C117.647 209.314 98.738 198.72 78.9261 190.294C59.1141 181.868 38.6031 175.524 25.6902 161.494C12.8374 147.319 7.4386 125.396 12.709 107.072C17.9794 88.7481 33.775 73.9624 47.222 55.4846C60.7293 36.8623 71.8278 14.6923 87.4532 10.8591C102.995 6.82148 123.087 21.4697 149.625 27.9506C176.307 34.4914 209.663 33.1293 220.547 47.1623Z" fill="url(#paint0_linear_202_3827)" fill-opacity="0.1"/>
</g>
<defs>
<filter id="filter0_f_202_3827" x="0.705078" y="0.16626" width="234.408" height="221.705" filterUnits="userSpaceOnUse" color-interpolation-filters="sRGB">
<feFlood flood-opacity="0" result="BackgroundImageFix"/>
<feBlend mode="normal" in="SourceGraphic" in2="BackgroundImageFix" result="shape"/>
<feGaussianBlur stdDeviation="5" result="effect1_foregroundBlur_202_3827"/>
</filter>
<linearGradient id="paint0_linear_202_3827" x1="168.143" y1="43.4671" x2="87.8602" y2="194.639" gradientUnits="userSpaceOnUse">
<stop stop-color="#1EB4FF"/>
<stop offset="1" stop-color="#90E5FC"/>
</linearGradient>
</defs>
</svg>
