<svg width="240" height="220" viewBox="0 0 240 220" fill="none" xmlns="http://www.w3.org/2000/svg">
<g filter="url(#filter0_f_202_3837)">
<path d="M146.002 186.332C116.52 194.916 88.94 214.654 72.072 208.509C55.2039 202.365 49.048 170.338 37.6946 141.981C26.2128 113.531 9.498 88.5288 10.9193 64.1362C12.3406 39.7436 32.0263 16.0531 55.3684 11.63C78.6176 7.33522 105.523 22.3078 127.569 31.0258C149.835 39.7084 167.207 41.915 182.802 51.4403C198.396 60.9656 212.18 77.5884 221.098 100.664C230.016 123.739 234.07 153.266 220.451 166.681C206.739 180.225 175.484 177.748 146.002 186.332Z" fill="url(#paint0_linear_202_3837)" fill-opacity="0.1"/>
</g>
<defs>
<filter id="filter0_f_202_3837" x="0.834473" y="0.87207" width="238.439" height="218.803" filterUnits="userSpaceOnUse" color-interpolation-filters="sRGB">
<feFlood flood-opacity="0" result="BackgroundImageFix"/>
<feBlend mode="normal" in="SourceGraphic" in2="BackgroundImageFix" result="shape"/>
<feGaussianBlur stdDeviation="5" result="effect1_foregroundBlur_202_3837"/>
</filter>
<linearGradient id="paint0_linear_202_3837" x1="206.042" y1="187.146" x2="12.5878" y2="47.1533" gradientUnits="userSpaceOnUse">
<stop stop-color="#1EB4FF"/>
<stop offset="1" stop-color="#90E5FC"/>
</linearGradient>
</defs>
</svg>
