<svg width="14" height="16" viewBox="0 0 22 25" fill="none" xmlns="http://www.w3.org/2000/svg">
<path d="M15.791 16.7365C15.7493 13.9809 17.1199 11.3218 19.3463 9.95779C20.9465 9.03468 21.844 7.16779 21.4335 5.27335C20.9187 2.91735 18.581 1.42246 16.2015 1.93223C14.6082 2.26979 13.4046 3.42712 12.9384 4.86001V4.84623C12.1592 7.4089 9.64754 9.55823 6.8228 10.1576C2.81529 11.0118 0.261894 14.9247 1.12462 18.8996C1.98735 22.8676 5.9392 25.3958 9.95367 24.5416C13.6481 23.7562 16.1041 20.3669 15.791 16.7365Z" fill="black"/>
<path d="M6.12021 7.38144C8.09911 7.38144 9.70332 5.79305 9.70332 3.83367C9.70332 1.87428 8.09911 0.285889 6.12021 0.285889C4.14132 0.285889 2.53711 1.87428 2.53711 3.83367C2.53711 5.79305 4.14132 7.38144 6.12021 7.38144Z" fill="black"/>
</svg>
