<svg width="29" height="29" viewBox="0 0 29 29" fill="none" xmlns="http://www.w3.org/2000/svg">
<path d="M28 13.75C28.0051 15.7298 27.5426 17.6828 26.65 19.45C25.5916 21.5676 23.9646 23.3488 21.9511 24.5939C19.9377 25.8391 17.6173 26.4991 15.25 26.5C13.2702 26.5052 11.3172 26.0426 9.54999 25.15L1 28L3.85 19.45C2.95739 17.6828 2.49484 15.7298 2.5 13.75C2.50091 11.3827 3.16091 9.06231 4.40607 7.04886C5.65123 5.03541 7.43237 3.40839 9.54999 2.35004C11.3172 1.45744 13.2702 0.994881 15.25 1.00004H16C19.1265 1.17253 22.0795 2.49218 24.2937 4.70633C26.5078 6.92047 27.8275 9.87351 28 13V13.75Z" stroke="black" stroke-width="2" stroke-linecap="round" stroke-linejoin="round"/>
</svg>
