<svg width="193" height="24" viewBox="0 0 193 24" fill="none" xmlns="http://www.w3.org/2000/svg">
<path d="M37.1416 12.1866C37.1416 13.1066 36.9908 13.9532 36.6892 14.7266C36.3876 15.4999 35.9613 16.1599 35.4171 16.7199C34.8663 17.2732 34.2105 17.7066 33.4433 18.0132C32.6761 18.3199 31.8171 18.4732 30.8729 18.4732H26.1582V5.8999H30.8729C31.8171 5.8999 32.6696 6.05324 33.4433 6.36657C34.2105 6.6799 34.8728 7.10657 35.4171 7.6599C35.9613 8.21324 36.3876 8.8799 36.6892 9.64657C36.9908 10.4199 37.1416 11.2666 37.1416 12.1866ZM34.781 12.1866C34.781 11.4932 34.6892 10.8799 34.5122 10.3266C34.3351 9.7799 34.0728 9.31324 33.7319 8.93323C33.3909 8.55324 32.9843 8.2599 32.4991 8.0599C32.0138 7.8599 31.4762 7.75323 30.8663 7.75323H28.4598V16.6132H30.8663C31.4696 16.6132 32.0138 16.5132 32.4991 16.3066C32.9843 16.1066 33.3909 15.8132 33.7319 15.4332C34.0728 15.0532 34.3286 14.5866 34.5122 14.0399C34.6892 13.4932 34.781 12.8732 34.781 12.1799V12.1866Z" fill="black"/>
<path d="M38.4135 10.8C39.4233 9.85998 40.6364 9.39331 42.0594 9.39331C42.5708 9.39331 43.0298 9.47998 43.4364 9.64664C43.843 9.81998 44.1839 10.0533 44.4659 10.36C44.7479 10.6666 44.9577 11.0266 45.1019 11.4533C45.2462 11.88 45.3183 12.34 45.3183 12.8466V18.4866H44.361C44.1643 18.4866 44.0069 18.4533 43.8954 18.3933C43.7839 18.3333 43.6987 18.2066 43.6397 18.0266L43.4495 17.38C43.2266 17.58 43.0102 17.76 42.8003 17.9133C42.5905 18.0666 42.3676 18.1933 42.1446 18.3C41.9151 18.4066 41.6725 18.4866 41.4102 18.54C41.1479 18.5933 40.8659 18.62 40.5512 18.62C40.1774 18.62 39.8365 18.5666 39.5217 18.4666C39.207 18.3666 38.9381 18.2133 38.7086 18.0066C38.4791 17.8066 38.3021 17.5533 38.1775 17.2533C38.0529 16.9533 37.9873 16.6 37.9873 16.2C37.9873 15.9733 38.0266 15.7466 38.0988 15.5266C38.1709 15.3066 38.2955 15.0933 38.4594 14.8866C38.6234 14.68 38.8463 14.4933 39.1152 14.3133C39.384 14.1333 39.7119 13.98 40.1053 13.84C40.4987 13.7 40.9512 13.6 41.4692 13.5133C41.9872 13.4266 42.584 13.38 43.2462 13.36V12.84C43.2462 12.24 43.1217 11.8 42.8725 11.5133C42.6233 11.2266 42.2561 11.08 41.784 11.08C41.443 11.08 41.1545 11.12 40.9315 11.2C40.7086 11.28 40.5053 11.3733 40.3348 11.4733C40.1643 11.5733 40.0069 11.6666 39.8692 11.7466C39.7315 11.8266 39.5742 11.8666 39.4037 11.8666C39.2529 11.8666 39.1283 11.8266 39.0299 11.7466C38.925 11.6666 38.8463 11.58 38.7807 11.4733L38.407 10.7866L38.4135 10.8ZM43.2594 14.6733C42.6495 14.7 42.1381 14.7533 41.7184 14.8333C41.2987 14.9133 40.9709 15.0133 40.7151 15.1333C40.4594 15.2533 40.2823 15.4 40.1774 15.56C40.0725 15.72 40.0135 15.9 40.0135 16.0933C40.0135 16.4733 40.125 16.74 40.3414 16.9C40.5578 17.06 40.8463 17.1466 41.2004 17.1466C41.6332 17.1466 42.0069 17.0666 42.3282 16.9066C42.643 16.7466 42.9577 16.5066 43.2594 16.18V14.6733Z" fill="black"/>
<path d="M50.112 18.6198C49.3448 18.6198 48.7612 18.3997 48.3547 17.9598C47.9481 17.5198 47.7448 16.9197 47.7448 16.1464V11.1597H46.8465C46.735 11.1597 46.6367 11.1197 46.558 11.0464C46.4793 10.9731 46.4399 10.8597 46.4399 10.7064V9.85308L47.8498 9.61975L48.2957 7.18642C48.3219 7.07308 48.3809 6.97975 48.4596 6.91975C48.5383 6.85975 48.6432 6.82642 48.7678 6.82642H49.8628V9.63308H52.2103V11.1664H49.8628V16.0064C49.8628 16.2864 49.9284 16.4997 50.0661 16.6597C50.1973 16.8131 50.3809 16.8931 50.6169 16.8931C50.7481 16.8931 50.8595 16.8798 50.9448 16.8464C51.03 16.8131 51.1087 16.7798 51.1743 16.7464C51.2399 16.7131 51.2989 16.6797 51.3513 16.6464C51.4038 16.6131 51.4563 16.5997 51.5022 16.5997C51.5677 16.5997 51.6136 16.6131 51.6595 16.6464C51.6989 16.6797 51.7448 16.7264 51.7907 16.7864L52.4267 17.8331C52.1185 18.0931 51.7645 18.2931 51.3645 18.4264C50.9645 18.5597 50.5514 18.6264 50.1251 18.6264L50.112 18.6198Z" fill="black"/>
<path d="M53.351 10.8C54.3608 9.85998 55.5739 9.39331 56.9969 9.39331C57.5083 9.39331 57.9673 9.47998 58.3739 9.64664C58.7805 9.81998 59.1214 10.0533 59.4034 10.36C59.6854 10.6666 59.8952 11.0266 60.0394 11.4533C60.1837 11.88 60.2558 12.34 60.2558 12.8466V18.4866H59.2985C59.1018 18.4866 58.9444 18.4533 58.8329 18.3933C58.7214 18.3333 58.6362 18.2066 58.5772 18.0266L58.387 17.38C58.1641 17.58 57.9477 17.76 57.7378 17.9133C57.528 18.0666 57.3051 18.1933 57.0821 18.3C56.8526 18.4066 56.61 18.4866 56.3477 18.54C56.0854 18.5933 55.8035 18.62 55.4887 18.62C55.1149 18.62 54.774 18.5666 54.4592 18.4666C54.1445 18.3666 53.8756 18.2133 53.6461 18.0066C53.4166 17.8066 53.2396 17.5533 53.115 17.2533C52.9904 16.9533 52.9248 16.6 52.9248 16.2C52.9248 15.9733 52.9641 15.7466 53.0363 15.5266C53.1084 15.3066 53.233 15.0933 53.3969 14.8866C53.5674 14.6866 53.7838 14.4933 54.0527 14.3133C54.3215 14.1333 54.6494 13.98 55.0428 13.84C55.4362 13.7066 55.8887 13.6 56.4067 13.5133C56.9247 13.4266 57.5215 13.38 58.1837 13.36V12.84C58.1837 12.24 58.0592 11.8 57.81 11.5133C57.5608 11.2266 57.1936 11.08 56.7215 11.08C56.3805 11.08 56.0985 11.12 55.869 11.2C55.6395 11.28 55.4428 11.3733 55.2723 11.4733C55.1018 11.5733 54.9444 11.6666 54.8067 11.7466C54.669 11.8266 54.5117 11.8666 54.3412 11.8666C54.1904 11.8666 54.0658 11.8266 53.9674 11.7466C53.8625 11.6666 53.7838 11.58 53.7182 11.4733L53.3445 10.7866L53.351 10.8ZM58.1969 14.6733C57.587 14.7 57.0756 14.7533 56.6559 14.8333C56.2362 14.9133 55.9084 15.0133 55.6526 15.1333C55.3969 15.2533 55.2199 15.4 55.1149 15.56C55.0035 15.72 54.951 15.9 54.951 16.0933C54.951 16.4733 55.0625 16.74 55.2789 16.9C55.4953 17.06 55.7838 17.1466 56.1379 17.1466C56.5707 17.1466 56.9444 17.0666 57.2657 16.9066C57.5805 16.7466 57.8887 16.5066 58.1969 16.18V14.6733Z" fill="black"/>
<path d="M69.0365 11.1732H69.5742C69.7906 11.1732 69.9676 11.1399 70.1119 11.0799C70.2561 11.0199 70.3742 10.9199 70.4791 10.7866L73.8954 6.39324C74.0397 6.20657 74.1905 6.0799 74.3413 6.00657C74.4987 5.93324 74.6954 5.8999 74.938 5.8999H76.9249L72.7544 11.1266C72.5118 11.4466 72.2561 11.6732 71.9938 11.8066C72.184 11.8732 72.3545 11.9732 72.5053 12.0999C72.6561 12.2266 72.8003 12.3866 72.9381 12.5932L77.2331 18.4799H75.2069C74.9315 18.4799 74.7282 18.4399 74.597 18.3599C74.4593 18.2799 74.3479 18.1666 74.2561 18.0132L70.7545 13.3666C70.643 13.2066 70.5184 13.0999 70.3807 13.0332C70.243 12.9666 70.0332 12.9399 69.7643 12.9399H69.0365V18.4732H66.7349V5.8999H69.0365V11.1732Z" fill="black"/>
<path d="M80.1048 10.6465C80.2819 10.4665 80.4655 10.2998 80.6622 10.1465C80.8589 9.99316 81.0687 9.85983 81.2851 9.75316C81.5015 9.64649 81.7376 9.55983 81.9933 9.49983C82.2425 9.43983 82.5179 9.40649 82.813 9.40649C83.2916 9.40649 83.7179 9.48649 84.0851 9.65316C84.4588 9.81983 84.767 10.0532 85.0162 10.3465C85.2654 10.6465 85.4555 10.9998 85.5801 11.4198C85.7113 11.8332 85.7703 12.2932 85.7703 12.7932V18.4732H83.6589V12.7932C83.6589 12.2465 83.5343 11.8265 83.2916 11.5265C83.049 11.2265 82.6753 11.0798 82.1704 11.0798C81.8031 11.0798 81.4622 11.1665 81.1409 11.3332C80.8196 11.4998 80.5179 11.7332 80.236 12.0198V18.4732H78.1245V9.54649H79.4163C79.6917 9.54649 79.8687 9.67983 79.954 9.93983L80.0982 10.6465H80.1048Z" fill="black"/>
<path d="M91.6656 9.41309C92.3147 9.41309 92.9049 9.51975 93.4426 9.73309C93.9737 9.94642 94.4327 10.2531 94.813 10.6464C95.1934 11.0398 95.4819 11.5198 95.6917 12.0931C95.9016 12.6664 95.9999 13.2998 95.9999 13.9998C95.9999 14.6998 95.895 15.3464 95.6917 15.9131C95.4884 16.4798 95.1934 16.9664 94.813 17.3664C94.4327 17.7664 93.9803 18.0731 93.4426 18.2864C92.9049 18.4998 92.3147 18.6064 91.6656 18.6064C91.0164 18.6064 90.4131 18.4998 89.8754 18.2864C89.3377 18.0731 88.8787 17.7664 88.505 17.3664C88.1246 16.9664 87.8296 16.4798 87.6263 15.9131C87.423 15.3464 87.3115 14.7064 87.3115 13.9998C87.3115 13.2931 87.4164 12.6598 87.6263 12.0931C87.8361 11.5264 88.1312 11.0464 88.505 10.6464C88.8853 10.2531 89.3443 9.94642 89.8754 9.73309C90.4131 9.51975 91.0098 9.41309 91.6656 9.41309ZM91.6656 16.9531C92.3934 16.9531 92.9377 16.7064 93.2852 16.2064C93.6327 15.7064 93.8098 14.9798 93.8098 14.0131C93.8098 13.0464 93.6327 12.3198 93.2852 11.8131C92.9311 11.3064 92.3934 11.0531 91.6656 11.0531C90.9377 11.0531 90.3738 11.3064 90.0197 11.8131C89.6656 12.3198 89.482 13.0531 89.482 14.0131C89.482 14.9731 89.659 15.6998 90.0197 16.1998C90.3738 16.6998 90.9246 16.9531 91.6656 16.9531Z" fill="black"/>
<path d="M110.006 9.55328L107.219 18.4799H105.528C105.331 18.4799 105.2 18.3533 105.128 18.0999L103.554 12.9399C103.501 12.7666 103.456 12.5933 103.41 12.4199C103.364 12.2466 103.331 12.0733 103.305 11.8999C103.272 12.0733 103.233 12.2466 103.187 12.4266C103.141 12.6066 103.095 12.7799 103.042 12.9533L101.442 18.0933C101.377 18.3466 101.226 18.4733 100.99 18.4733H99.3638L96.5835 9.54661H98.2687C98.4261 9.54661 98.5572 9.58661 98.6622 9.65994C98.7671 9.73328 98.8392 9.83328 98.8785 9.94661L100.138 14.7133C100.203 14.9733 100.256 15.2266 100.301 15.4799C100.347 15.7333 100.393 15.9799 100.426 16.2266C100.492 15.9799 100.557 15.7266 100.629 15.4799C100.701 15.2333 100.774 14.9733 100.859 14.7133L102.315 9.92661C102.347 9.81328 102.413 9.71328 102.518 9.63994C102.623 9.56661 102.741 9.52661 102.878 9.52661H103.81C103.96 9.52661 104.085 9.56661 104.19 9.63994C104.295 9.71328 104.367 9.81328 104.4 9.92661L105.81 14.7133C105.882 14.9733 105.954 15.2333 106.019 15.4866C106.085 15.7399 106.151 15.9866 106.21 16.2399C106.282 15.7466 106.387 15.2399 106.524 14.7199L107.816 9.95328C107.855 9.83994 107.928 9.73994 108.033 9.66661C108.137 9.59328 108.255 9.55328 108.4 9.55328H110.006Z" fill="black"/>
<path d="M113.344 5.55322V18.4799H111.232V5.55322H113.344Z" fill="black"/>
<path d="M117.081 14.2865C117.114 14.7465 117.193 15.1398 117.324 15.4732C117.455 15.8065 117.613 16.0798 117.822 16.2998C118.026 16.5198 118.275 16.6798 118.557 16.7865C118.839 16.8932 119.154 16.9465 119.495 16.9465C119.836 16.9465 120.131 16.9065 120.38 16.8265C120.629 16.7465 120.845 16.6532 121.029 16.5598C121.213 16.4598 121.376 16.3732 121.514 16.2865C121.652 16.2065 121.79 16.1665 121.921 16.1665C122.098 16.1665 122.229 16.2332 122.314 16.3665L122.924 17.1465C122.688 17.4265 122.426 17.6598 122.137 17.8465C121.849 18.0332 121.54 18.1865 121.226 18.2998C120.911 18.4132 120.59 18.4932 120.262 18.5398C119.934 18.5865 119.613 18.6065 119.304 18.6065C118.695 18.6065 118.124 18.5065 117.599 18.2998C117.075 18.0932 116.616 17.7865 116.229 17.3865C115.842 16.9865 115.534 16.4865 115.311 15.8865C115.088 15.2932 114.977 14.6065 114.977 13.8198C114.977 13.2132 115.075 12.6398 115.265 12.0998C115.455 11.5598 115.737 11.0998 116.098 10.6998C116.459 10.2998 116.904 9.98649 117.422 9.75316C117.947 9.51983 118.531 9.40649 119.193 9.40649C119.744 9.40649 120.255 9.49316 120.727 9.67316C121.193 9.85316 121.599 10.1132 121.934 10.4598C122.268 10.8065 122.537 11.2265 122.727 11.7332C122.917 12.2332 123.016 12.8065 123.016 13.4532C123.016 13.7798 122.983 13.9998 122.911 14.1132C122.839 14.2265 122.714 14.2798 122.517 14.2798H117.081V14.2865ZM121.114 12.9932C121.114 12.7132 121.075 12.4532 120.996 12.2065C120.917 11.9598 120.806 11.7465 120.649 11.5598C120.491 11.3732 120.301 11.2265 120.065 11.1198C119.829 11.0132 119.554 10.9598 119.239 10.9598C118.629 10.9598 118.15 11.1332 117.796 11.4932C117.442 11.8465 117.219 12.3465 117.127 12.9998H121.114V12.9932Z" fill="black"/>
<path d="M132.222 5.5532V18.4799H130.93C130.648 18.4799 130.471 18.3465 130.399 18.0865L130.222 17.2265C129.868 17.6399 129.461 17.9732 129.002 18.2265C128.543 18.4799 128.006 18.6065 127.396 18.6065C126.917 18.6065 126.478 18.5065 126.078 18.2999C125.678 18.0999 125.337 17.7999 125.048 17.4132C124.76 17.0265 124.537 16.5532 124.38 15.9799C124.222 15.4065 124.144 14.7599 124.144 14.0332C124.144 13.3732 124.229 12.7599 124.406 12.1865C124.583 11.6132 124.839 11.1265 125.166 10.7065C125.494 10.2865 125.894 9.95987 126.353 9.72654C126.819 9.4932 127.337 9.3732 127.914 9.3732C128.406 9.3732 128.825 9.4532 129.173 9.60654C129.521 9.75987 129.829 9.9732 130.104 10.2399V5.5332H132.216L132.222 5.5532ZM130.111 11.8332C129.868 11.5399 129.612 11.3265 129.33 11.2065C129.048 11.0865 128.747 11.0265 128.419 11.0265C128.091 11.0265 127.809 11.0865 127.553 11.2065C127.298 11.3265 127.075 11.5132 126.898 11.7599C126.714 12.0065 126.576 12.3199 126.478 12.6999C126.38 13.0799 126.334 13.5265 126.334 14.0465C126.334 14.5665 126.373 15.0132 126.458 15.3732C126.544 15.7332 126.662 16.0332 126.812 16.2599C126.963 16.4865 127.153 16.6532 127.376 16.7532C127.599 16.8532 127.848 16.9065 128.124 16.9065C128.563 16.9065 128.937 16.8132 129.245 16.6265C129.553 16.4399 129.842 16.1799 130.117 15.8332V11.8332H130.111Z" fill="black"/>
<path d="M142.012 9.85992V10.6599C142.012 10.9133 141.861 11.0733 141.56 11.1333L140.773 11.2799C140.891 11.5866 140.95 11.9266 140.95 12.2866C140.95 12.7266 140.865 13.1266 140.687 13.4799C140.51 13.8333 140.274 14.1399 139.966 14.3866C139.658 14.6333 139.297 14.8266 138.878 14.9666C138.458 15.1066 138.006 15.1733 137.52 15.1733C137.35 15.1733 137.186 15.1666 137.022 15.1466C136.865 15.1266 136.707 15.1066 136.55 15.0799C136.274 15.2466 136.137 15.4399 136.137 15.6466C136.137 15.8266 136.215 15.9599 136.379 16.0399C136.543 16.1266 136.76 16.1799 137.029 16.2199C137.297 16.2533 137.606 16.2733 137.947 16.2866C138.287 16.2933 138.642 16.3133 139.002 16.3399C139.363 16.3666 139.71 16.4199 140.058 16.4933C140.399 16.5666 140.707 16.6799 140.976 16.8399C141.245 16.9999 141.461 17.2066 141.625 17.4799C141.789 17.7466 141.868 18.0933 141.868 18.5199C141.868 18.9133 141.769 19.2999 141.579 19.6666C141.389 20.0399 141.114 20.3666 140.746 20.6599C140.386 20.9466 139.94 21.1866 139.409 21.3599C138.878 21.5333 138.281 21.6266 137.606 21.6266C136.93 21.6266 136.366 21.5599 135.874 21.4333C135.383 21.2999 134.976 21.1266 134.648 20.9133C134.32 20.6999 134.078 20.4466 133.92 20.1599C133.763 19.8733 133.678 19.5799 133.678 19.2733C133.678 18.8533 133.802 18.5066 134.051 18.2266C134.301 17.9466 134.642 17.7199 135.074 17.5533C134.838 17.4333 134.655 17.2666 134.517 17.0666C134.379 16.8666 134.314 16.5999 134.314 16.2666C134.314 16.1333 134.34 15.9933 134.386 15.8533C134.432 15.7133 134.504 15.5733 134.602 15.4333C134.701 15.2933 134.812 15.1599 134.956 15.0399C135.101 14.9133 135.265 14.8066 135.461 14.7066C135.015 14.4599 134.668 14.1399 134.412 13.7333C134.156 13.3266 134.032 12.8533 134.032 12.3066C134.032 11.8666 134.117 11.4666 134.294 11.1133C134.465 10.7533 134.707 10.4533 135.022 10.1999C135.33 9.94659 135.704 9.75326 136.124 9.61992C136.55 9.48659 137.015 9.41992 137.514 9.41992C137.888 9.41992 138.242 9.45992 138.576 9.53992C138.91 9.61992 139.212 9.73326 139.481 9.88659H142.005L142.012 9.85992ZM139.907 18.8799C139.907 18.7066 139.855 18.5666 139.756 18.4533C139.651 18.3399 139.514 18.2599 139.337 18.1999C139.16 18.1399 138.956 18.0933 138.714 18.0666C138.478 18.0399 138.228 18.0133 137.96 17.9999C137.697 17.9866 137.422 17.9733 137.14 17.9599C136.858 17.9466 136.583 17.9266 136.314 17.8933C136.078 18.0266 135.888 18.1866 135.743 18.3666C135.599 18.5466 135.527 18.7533 135.527 18.9933C135.527 19.1533 135.566 19.2999 135.645 19.4333C135.724 19.5666 135.842 19.6866 136.012 19.7866C136.183 19.8866 136.399 19.9599 136.668 20.0199C136.937 20.0733 137.265 20.0999 137.651 20.0999C138.038 20.0999 138.386 20.0666 138.668 20.0066C138.95 19.9466 139.186 19.8599 139.376 19.7533C139.56 19.6466 139.697 19.5199 139.783 19.3733C139.868 19.2266 139.914 19.0666 139.914 18.8933L139.907 18.8799ZM137.52 13.7999C137.783 13.7999 138.012 13.7666 138.202 13.6933C138.399 13.6199 138.556 13.5199 138.687 13.3933C138.819 13.2666 138.91 13.1133 138.976 12.9333C139.042 12.7533 139.074 12.5533 139.074 12.3399C139.074 11.8999 138.943 11.5533 138.687 11.2933C138.425 11.0333 138.038 10.9066 137.52 10.9066C137.002 10.9066 136.609 11.0333 136.353 11.2933C136.091 11.5533 135.966 11.8999 135.966 12.3399C135.966 12.5466 135.999 12.7466 136.065 12.9266C136.13 13.1066 136.229 13.2599 136.353 13.3933C136.478 13.5266 136.642 13.6266 136.838 13.6999C137.035 13.7733 137.265 13.8066 137.52 13.8066V13.7999Z" fill="black"/>
<path d="M144.819 14.2865C144.852 14.7465 144.93 15.1398 145.061 15.4732C145.193 15.8065 145.35 16.0798 145.56 16.2998C145.763 16.5198 146.012 16.6798 146.294 16.7865C146.576 16.8932 146.891 16.9465 147.232 16.9465C147.573 16.9465 147.868 16.9065 148.117 16.8265C148.366 16.7465 148.583 16.6532 148.766 16.5598C148.95 16.4598 149.114 16.3732 149.251 16.2865C149.389 16.2065 149.527 16.1665 149.658 16.1665C149.835 16.1665 149.966 16.2332 150.051 16.3665L150.661 17.1465C150.425 17.4265 150.163 17.6598 149.874 17.8465C149.586 18.0332 149.278 18.1865 148.963 18.2998C148.648 18.4132 148.327 18.4932 147.999 18.5398C147.671 18.5865 147.35 18.6065 147.042 18.6065C146.432 18.6065 145.861 18.5065 145.337 18.2998C144.812 18.0932 144.353 17.7865 143.966 17.3865C143.579 16.9865 143.271 16.4865 143.048 15.8865C142.825 15.2932 142.714 14.6065 142.714 13.8198C142.714 13.2132 142.812 12.6398 143.002 12.0998C143.193 11.5665 143.475 11.0998 143.835 10.6998C144.196 10.2998 144.642 9.98649 145.16 9.75316C145.678 9.51983 146.268 9.40649 146.924 9.40649C147.474 9.40649 147.986 9.49316 148.458 9.67316C148.924 9.85316 149.33 10.1132 149.665 10.4598C149.999 10.8065 150.268 11.2265 150.458 11.7332C150.648 12.2332 150.747 12.8065 150.747 13.4532C150.747 13.7798 150.714 13.9998 150.642 14.1132C150.569 14.2265 150.445 14.2798 150.248 14.2798H144.812L144.819 14.2865ZM148.851 12.9932C148.851 12.7132 148.812 12.4532 148.733 12.2065C148.655 11.9598 148.543 11.7465 148.386 11.5598C148.235 11.3732 148.038 11.2265 147.802 11.1198C147.566 11.0132 147.291 10.9598 146.976 10.9598C146.366 10.9598 145.888 11.1332 145.533 11.4932C145.179 11.8465 144.956 12.3465 144.858 12.9998H148.845L148.851 12.9932Z" fill="black"/>
<path d="M167.258 5.8999V18.4799H164.949V12.9799H159.14V18.4799H156.832V5.8999H159.14V11.3132H164.949V5.8999H167.258Z" fill="black"/>
<path d="M177.081 9.55322V18.4799H175.789C175.507 18.4799 175.33 18.3466 175.258 18.0866L175.113 17.3732C174.753 17.7466 174.359 18.0466 173.927 18.2732C173.494 18.4999 172.982 18.6199 172.392 18.6199C171.913 18.6199 171.487 18.5399 171.12 18.3732C170.753 18.2066 170.445 17.9732 170.189 17.6732C169.94 17.3732 169.75 17.0132 169.618 16.5999C169.487 16.1866 169.428 15.7266 169.428 15.2266V9.55322H171.54V15.2266C171.54 15.7732 171.664 16.1932 171.913 16.4932C172.163 16.7932 172.536 16.9399 173.028 16.9399C173.395 16.9399 173.736 16.8599 174.058 16.6932C174.379 16.5266 174.681 16.2999 174.963 16.0132V9.55989H177.074L177.081 9.55322Z" fill="black"/>
<path d="M181.284 10.6466C181.638 10.2666 182.031 9.96656 182.457 9.74656C182.89 9.52656 183.382 9.41322 183.933 9.41322C184.438 9.41322 184.897 9.51322 185.303 9.71989C185.71 9.92656 186.057 10.2132 186.346 10.5932C186.634 10.9732 186.857 11.4332 187.008 11.9732C187.166 12.5132 187.238 13.1199 187.238 13.7932C187.238 14.5199 187.152 15.1799 186.975 15.7666C186.798 16.3599 186.549 16.8666 186.215 17.2866C185.887 17.7066 185.493 18.0332 185.028 18.2666C184.569 18.4999 184.051 18.6132 183.487 18.6132C183.212 18.6132 182.962 18.5866 182.739 18.5332C182.516 18.4799 182.313 18.3999 182.123 18.2999C181.933 18.1999 181.762 18.0799 181.605 17.9399C181.448 17.7999 181.297 17.6399 181.153 17.4666L181.061 18.0666C181.028 18.2199 180.969 18.3266 180.884 18.3866C180.798 18.4466 180.687 18.4799 180.543 18.4799H179.146V5.55322H181.257V10.6532L181.284 10.6466ZM181.284 16.1599C181.526 16.4532 181.782 16.6666 182.064 16.7866C182.346 16.9066 182.641 16.9666 182.956 16.9666C183.271 16.9666 183.572 16.9066 183.834 16.7866C184.097 16.6666 184.313 16.4799 184.497 16.2332C184.68 15.9799 184.818 15.6599 184.916 15.2666C185.015 14.8732 185.061 14.4066 185.061 13.8599C185.061 12.8799 184.903 12.1732 184.582 11.7332C184.261 11.2932 183.802 11.0732 183.205 11.0732C182.798 11.0732 182.444 11.1666 182.143 11.3532C181.841 11.5399 181.553 11.8066 181.277 12.1466V16.1466L181.284 16.1599Z" fill="black"/>
<path d="M191.139 18.4798C192.045 18.4798 192.779 17.7336 192.779 16.8132C192.779 15.8927 192.045 15.1465 191.139 15.1465C190.234 15.1465 189.5 15.8927 189.5 16.8132C189.5 17.7336 190.234 18.4798 191.139 18.4798Z" fill="url(#paint0_linear_390_13175)"/>
<path d="M14.3088 16.1002C14.2695 13.4335 15.5613 10.8602 17.6596 9.54017C19.1678 8.64683 20.0136 6.84017 19.6268 5.00683C19.1415 2.72683 16.9383 1.28017 14.6957 1.7735C13.1941 2.10017 12.0597 3.22017 11.6203 4.60683V4.5935C10.8859 7.0735 8.51874 9.1535 5.85649 9.7335C2.07949 10.5602 -0.327026 14.3468 0.486076 18.1935C1.29918 22.0335 5.02371 24.4802 8.80726 23.6535C12.2892 22.8935 14.6039 19.6135 14.3088 16.1002Z" fill="url(#paint1_linear_390_13175)"/>
<path d="M5.19438 7.04684C7.05944 7.04684 8.57138 5.50969 8.57138 3.61351C8.57138 1.71733 7.05944 0.180176 5.19438 0.180176C3.32932 0.180176 1.81738 1.71733 1.81738 3.61351C1.81738 5.50969 3.32932 7.04684 5.19438 7.04684Z" fill="url(#paint2_linear_390_13175)"/>
<defs>
<linearGradient id="paint0_linear_390_13175" x1="191.509" y1="18.4418" x2="190.756" y2="15.1976" gradientUnits="userSpaceOnUse">
<stop stop-color="#1EB4FF"/>
<stop offset="1" stop-color="#BFF0FD"/>
</linearGradient>
<linearGradient id="paint1_linear_390_13175" x1="-0.124932" y1="15.3195" x2="20.8602" y2="10.8719" gradientUnits="userSpaceOnUse">
<stop stop-color="#1EB4FF"/>
<stop offset="1" stop-color="#BFF0FD"/>
</linearGradient>
<linearGradient id="paint2_linear_390_13175" x1="5.9012" y1="7.00528" x2="4.43428" y2="0.309191" gradientUnits="userSpaceOnUse">
<stop stop-color="#1EB4FF"/>
<stop offset="1" stop-color="#BFF0FD"/>
</linearGradient>
</defs>
</svg>
